<svg id="Layer_1" xmlns="http://www.w3.org/2000/svg" viewBox="0 0 600 400"><style>.st0{fill:none;} .st1{fill:#D3B539;} .st2{fill:#D9BE51;} .st3{opacity:0.8;fill:#D9BE52;} .st4{fill:#D8BC4D;} .st5{opacity:0.9608;fill:#D9BE52;}</style><path class="st0" d="M228.5 166.9h-.8c.3-.1.6-.1.8 0zM309.4 186.3c-.7-.3-1.3-.6-2-.9.4.2.7.4 1.1.5.3.1.6.3.9.4z"/><path class="st0" d="M224.3 166.7c1.3.1 2.7.2 4 .3-.8-.2-1.8-.4-2.9-.5h-.1c-1.3-.2-2.6-.3-3.8-.4-1.9-.1-3.9-.2-5.7-.1h-1.4c2.4.1 5.2.3 8.3.7.5-.1 1.1 0 1.6 0zM305.6 187.6c-3.4-1.4-7-2.7-10.5-3.8 3.5 1.2 6.9 2.5 10.2 3.9 1.9.8 3.8 1.7 5.5 2.6-1.6-1-3.4-1.8-5.2-2.7zM286.5 179.7c2.1.7 4.2 1.4 6.2 2.1-7.3-2.7-15.5-5.3-24.3-7.7-.6-.1-1.1-.3-1.7-.4-1.2-.3-2.4-.6-3.6-.8-1.3-.3-2.6-.5-3.9-.8.4.2 1.3.5 2.4.8 1.4.3 2.7.6 4.1.9 6.9 1.7 14 3.6 20.8 5.9zM246.6 169.7c-.7-.1-1.4-.2-2.2-.4.2.1.4.1.6.2.6.1 1.1.2 1.6.2zM243 168.5c-2.1-.4-4.1-.7-6.1-1l1.5.3c1.5.3 3 .5 4.6.7zM238.2 168.4c-3-.5-6-.9-8.9-1.2-1.1-.1-2.4-.2-3.7-.3 2.9.4 6.1.8 9.6 1.4 1.1.1 2.2.3 3.2.4 1.3.1 2.6.3 3.9.4-1.5-.2-2.8-.5-4.1-.7z"/><path class="st1" d="M321.8 196.8c-1.1-1.1-2.5-2.1-4-3.1-1.1-.7-2.2-1.4-3.4-2-.1-.1-.3-.2-.4-.2 1.5.9 2.9 1.8 4.2 2.8 1.2.9 2.4 1.9 3.3 2.8.9 1 1.6 1.9 2 2.8.2.3.3.6.3 1l.9.2c-.3-1.5-1.4-2.9-2.9-4.3z"/><path class="st2" d="M324.5 198.9c-.4-.5-.7-.9-1.1-1.3-1.4-1.5-3.3-3-5.4-4.4.5.3.9.6 1.3.9 3 2.3 5.2 4.7 5.7 7l.7.2c-.1-.3-.2-.7-.4-1-.2-.5-.5-.9-.8-1.4z"/><path class="st3" d="M305.6 187.6c1.8.9 3.6 1.7 5.2 2.6 1.8.9 3.6 1.9 5.2 2.9-1.6-1.1-3.5-2.3-5.7-3.5-1.5-.7-3.1-1.3-4.7-2z"/><path class="st4" d="M319.3 194.2c-.4-.3-.9-.6-1.3-.9-1.3-.8-2.6-1.6-4-2.4-3.3-1.8-6.9-3.4-10.5-4.7 1.9.9 3.8 1.8 5.6 2.7.8.4 1.7.9 2.5 1.3s1.6.9 2.3 1.3c-.3-.2-.6-.3-1-.5-.9-.4-1.8-.9-2.7-1.3 2.2 1.2 4.1 2.3 5.7 3.5.4.3.8.5 1.2.8 1.7 1.2 3.3 2.4 4.4 3.7 1 1.1 1.6 2.1 1.9 3.2l.2.1c-.1-.3-.2-.6-.3-1-.4-.9-1.1-1.9-2-2.8-.9-1-2-1.9-3.3-2.8-1.2-.9-2.7-1.9-4.2-2.8.1.1.3.2.4.2 1.2.6 2.3 1.3 3.4 2 1.5 1 2.9 2 4 3.1 1.5 1.4 2.5 2.9 2.9 4.3l.3.1c-.3-2.4-2.5-4.9-5.5-7.1z"/><path class="st5" d="M316 193.1c-1.6-1-3.4-2-5.2-2.9 3.4 1.8 6.3 3.8 8.5 5.7.5.4.9.8 1.3 1.2-1-1.2-2.6-2.6-4.6-4z"/><path class="st2" d="M317.2 193.9c-.4-.3-.8-.5-1.2-.8 2 1.4 3.6 2.8 4.6 4.1 1 1 1.6 2 2.1 3 .1.1.1.3.1.4l.7.2c-.3-1-.9-2.1-1.9-3.2-1.1-1.3-2.6-2.5-4.4-3.7z"/><path class="st5" d="M310.3 189.7c-2.4-1.3-5.2-2.7-8.3-4-1.1-.3-2.1-.6-3-.9 2.3.9 4.4 1.9 6.5 2.9 1.7.6 3.3 1.2 4.8 2z"/><path class="st3" d="M228.2 166.8h.3c3.2.3 6.5.6 9.9 1l-1.5-.3c-.8-.1-1.5-.2-2.3-.3-2.1-.1-4.3-.3-6.4-.4zM242.3 169.2c.9.1 1.9.2 2.8.4-.2-.1-.4-.1-.6-.2-2.1-.3-4.2-.7-6.2-1 1.2.2 2.5.5 4 .8zM249.2 170.5c-.3-.1-.6-.2-1-.2l-1.8-.3c.9.2 1.8.4 2.8.5z"/><path class="st4" d="M236.9 167.6c-.3-.1-.6-.1-.9-.2-.5 0-.9-.1-1.4-.1.8 0 1.5.2 2.3.3z"/><path class="st3" d="M224 167.7s.1 0 0 0c.1 0 .1 0 .1.1.9 0 1.8.1 2.7.1-1.5-.2-2.6-.3-2.8-.2z"/><path class="st1" d="M303.5 186.1c3.6 1.3 7.2 2.9 10.5 4.7 1.4.8 2.7 1.6 4 2.4-3-2.1-6.6-4-10.4-5.9-2.2-1.1-4.5-2.1-6.9-3-2.4-1-4.8-1.9-7.2-2.8-8.1-2.9-16.6-5.4-25-7.4 8.8 2.3 17.1 5 24.3 7.7 3.6 1.4 7.2 2.8 10.7 4.3zM261.2 170.4c2.5.6 5 1.2 7.4 1.8-1.3-.3-2.3-.6-2.8-.8-1.7-.4-3.4-.8-5-1.2-5.9-1.4-10.7-2.3-14.1-2.9.8.1 1.6.3 2.3.4 4.2.9 8.2 1.8 12.2 2.7zM248.6 168.6c-3.2-.6-6.3-1.1-9.3-1.6-3.1-.5-6.2-.9-9.2-1.3-2.7-.3-5.3-.6-7.9-.8 2.2.3 4.6.7 9.3 1.4.3 0 .6.1 1 .2 4.3.5 8.7 1.2 13.4 1.8 1.1.3 1.7.2 2.7.3z"/><path class="st3" d="M198.9 169c.8-.5 1.9-.9 3.2-1.3 1.3-.3 2.7-.6 4.3-.8 1.6-.2 3.2-.3 4.9-.4 1.7-.1 3.4-.1 5.1-.1 2.6 0 5.3.1 8 .2-.6-.1-1.1-.1-1.7-.2-3.1-.3-5.9-.5-8.3-.7-1.7 0-3.3.1-4.8.2-1.9.2-3.8.4-5.4.7-1.6.3-3 .7-4.3 1.1.7-.5 1.5-.9 2.4-1.2-1.6.4-3 .8-4 1.4.1 0 .2 0 .2-.1-.5.2-.9.5-1.4.8-.7.6-1.1 1.2-1.3 1.9l1 .2c.5-.5 1.1-1.2 2.1-1.7zM236.4 169c6.2.9 12.6 2.2 13.7 2.4-4.8-1.1-9.3-2-13.4-2.8-3.3-.3-6.5-.6-9.7-.7 2.3.2 5.7.5 9.4 1.1z"/><path class="st1" d="M309.8 187.2c-2-1-4.1-1.9-6.3-2.8-4.3-1.8-8.8-3.6-13.6-5.3 7.1 2.5 13 4.6 18.7 6.8-.4-.2-.7-.4-1.1-.5-5-2.2-10.2-4.2-15.5-6-1.5-.6-2.9-1.2-4.4-1.6-1.1-.4-2.3-.7-3.4-1.1-3.3-.9-6.5-1.6-9.7-2.4-1.7-.4-3.3-.8-4.9-1.2-6.5-1.5-12.9-2.8-19.1-3.8-4.9-.8-9.8-1.4-14.5-1.9.3.1.6.1.9.2 2 .3 4 .6 6.1 1 6.8 1 13.7 2.3 20.6 3.8 1 .2 2 .4 2.9.7 2.1.5 4.1 1 6.2 1.5 3 .8 6.1 1.6 9.1 2.5 3 .9 6 1.8 9 2.8 3 1 5.9 2.1 8.8 3.2 5.7 2.2 11.3 4.7 16.1 7.5 2.4 1.4 4.6 2.9 6.5 4.4 1.2.9 2.2 1.9 3 2.9-1.3-1.8-3.4-3.8-6.2-5.8-1.1-.7-2.1-1.3-3.3-1.9-2-1.1-3.9-2.1-5.9-3zM212.8 163.9c3.3.1 6.9.2 10.9.5 6.4.5 13.5 1.4 20.6 2.5-1-.2-1.6-.3-2-.3-.2 0-.3-.1-.4-.1-.1 0 .6.1 1.9.3.8.1 1.8.3 3 .5-7.4-1.4-14.6-2.5-21.6-3.1-7.6-.7-14.9-1-21.2-.3 2.6 0 5.5-.1 8.8 0z"/><path class="st3" d="M221.5 166c1.3.1 2.6.3 3.8.4-1-.2-2.1-.3-2.9-.4h-.9z"/><path class="st4" d="M222.6 165.6c2.5.2 5.1.4 7.6.7.8.1 1.5.2 2.3.3-.4-.1-.8-.1-1-.2-4.7-.7-7.1-1.1-9.3-1.4-3.3-.2-6.6-.3-9.7-.2-1.7.1-3 .3-4.4.5 1.1-.1 2.7 0 4.2 0 .6 0 1.2 0 1.7.1h.9c2.6 0 5.2.1 7.7.2z"/><path class="st3" d="M221.5 166l-3-.3c-3.5-.1-6.7-.1-9.5 0 1.6 0 3.4 0 5.4.1h1.4c1.8.1 3.8.1 5.7.2zM228.5 166.9c-.3 0-.5 0-.8-.1h.5c-1-.1-1.9-.3-2.9-.4h.1c1.1.2 2.1.4 2.9.5-1.4-.1-2.7-.2-4-.3.4 0 .8.1 1.3.2 1.3.1 2.6.2 3.7.3 2.9.4 5.9.8 8.9 1.2-3-.6-5.5-1-7.6-1.2-.7 0-1.4-.1-2.1-.2zM263 172.9c1.2.3 2.4.5 3.6.8.6.1 1.1.3 1.7.4-2.8-.7-5.7-1.5-8.6-2.2-5.8-1.4-11.4-2.5-16.7-3.4-1.5-.2-3.1-.4-4.6-.6.2 0 .4.1.6.1.1 0 .3.1.4.1 1.7.4 3.4.8 5 1.2.7.1 1.4.2 2.2.4-.5-.1-1-.1-1.5-.2 1.1.3 2.2.5 3.1.8 3.1.5 6.1 1.1 9.2 1.7 1.4.3 2.7.6 4.1.9-1-.3-1.9-.6-2.4-.8 1.3.2 2.6.5 3.9.8z"/><path class="st4" d="M322.1 195c-1.9-1.5-4.1-3-6.5-4.4-4.8-2.8-10.4-5.3-16.1-7.5-2.9-1.1-5.8-2.2-8.8-3.2-3-1-6-1.9-9-2.8-3-.9-6.1-1.7-9.1-2.5-2.1-.5-4.1-1-6.2-1.5-1-.2-2-.5-2.9-.7-6.9-1.5-13.8-2.8-20.6-3.8 5.3.9 11 2.1 16.7 3.4 2.9.7 5.8 1.4 8.6 2.2 8.5 2 16.9 4.5 25 7.4 2.5.9 4.9 1.8 7.2 2.8l6.9 3c3.8 1.8 7.5 3.8 10.4 5.9 2.1 1.4 4 2.9 5.4 4.4.5.4.8.9 1.1 1.3.3.4.6.9.8 1.3.2.3.3.7.4 1l.8.2c-.1-1.1-.5-2.3-1.4-3.6-.5-1-1.5-1.9-2.7-2.9z"/><path class="st5" d="M230.6 167.2c2 .2 4.6.6 7.6 1.2 2.1.3 4.1.6 6.2 1-1.6-.4-3.3-.8-5-1.2-.1 0-.3-.1-.4-.1-.2 0-.4-.1-.6-.1-3.3-.4-6.6-.8-9.9-1 .7 0 1.4.1 2.1.2zM222.4 166.1c.9.1 1.9.2 2.9.4 1 .1 1.9.3 2.9.4 2.1.1 4.2.2 6.4.4-5.9-.8-11.3-1.3-16.1-1.5l3 .3c.3-.1.6-.1.9 0z"/><path class="st3" d="M236.6 168.6c.6.1 1.2.1 1.7.2-1.1-.2-2.2-.3-3.2-.4.5 0 1 .1 1.5.2z"/><path class="st5" d="M242.3 169.2c1.3.3 2.7.5 4.1.8l1.8.3c-.9-.2-2-.5-3.1-.8-1-.1-1.9-.2-2.8-.3z"/><path class="st4" d="M289.9 179.1c4.8 1.7 9.3 3.5 13.6 5.3 2.2.9 4.3 1.8 6.3 2.8 2 1 4 2 5.9 3 1.1.6 2.2 1.3 3.3 1.9-2.8-2-6.3-4.1-10.4-6.2-5.7-2.3-11.7-4.4-18.7-6.8z"/><path class="st2" d="M236 167.4c-1.4-.3-2.6-.5-3.4-.7-.8-.1-1.5-.2-2.3-.3-2.5-.3-5.1-.6-7.6-.7-2.5-.2-5.1-.3-7.6-.2h-.9c1.4.1 2.9.1 4.4.3 4.8.2 10.3.7 16.1 1.5.4 0 .8 0 1.3.1z"/><path class="st4" d="M302 185.6c.1 0 .1 0 .2.1.4.1.8.3 1.2.4-3.4-1.5-7.1-3-10.8-4.3 3.4 1.3 6.6 2.5 9.4 3.8z"/><path class="st2" d="M302 185.6c3.1 1.4 5.8 2.7 8.3 4 .9.4 1.8.8 2.7 1.3.3.2.7.3 1 .5-.8-.5-1.5-.9-2.3-1.3-.8-.4-1.6-.9-2.5-1.3-1.8-.9-3.7-1.8-5.6-2.7-.4-.2-.8-.3-1.2-.4-.2 0-.3-.1-.4-.1z"/><path class="st3" d="M319.4 196c-2.2-1.9-5.2-3.9-8.5-5.7-1.8-.9-3.7-1.7-5.5-2.6-3.3-1.4-6.7-2.7-10.2-3.9 3.5 1.1 7.1 2.4 10.5 3.8-2.1-1-4.3-2-6.5-2.9-1.4-.4-2.8-.7-4.2-1-.1 0-.3-.1-.4-.1-.9-.3-1.7-.6-2.6-.9-.8-.3-1.6-.6-2.5-.9.4.1.8.2 1.2.2-.8-.2-1.6-.5-2.4-.7-4.1-1.5-8.4-2.8-12.6-3.8l-1.5-.3c-1-.2-.1.1 1.1.4 1.2.4 2.9.9 3.6 1.2-1-.3-2.1-.6-2.1-.6s.1.2.3.3c-.2-.1-.4-.1-.6-.2-.5-.1-.9-.1-1.3-.2 5 1.5 10.1 3.1 14.9 4.9 4.8 1.8 9.5 3.7 13.8 5.8h-.2c-1.4-.3-3.7-1.5-5-2-2.9-1.3-6-2.6-9-3.6-4.1-1.5-8.4-2.8-12.7-4-2.6-.7-5.1-1.3-7.7-1.9l-5.1-1.2c-1.5-.3-3.1-.5-4.5-.7-1-.1-.4.2.7.5 1 .3 2.4.7 3.8 1.1.2 0 .4.1.6.1.2 0 .3.1.5.1 8.1 1.9 15.4 4.1 22.3 6.7 5.5 2 10.6 4 15.4 6.1 2.4 1.1 4.6 2.2 6.5 3.3 2 1.1 3.6 2.3 4.7 3.4.5.5.9 1 1.1 1.5.1.1.1.3.1.4l4.7 1.1c-.1-.3-.2-.5-.4-.8-1-2.2-4-4.5-7.7-6.8-2.6-1.6-5.5-3.1-8.4-4.6 5 2.1 9.7 4.5 13.3 7.1 1.8 1.3 3.3 2.7 4.1 4 .3.5.5 1 .7 1.4l.8.2c-.1-1-.6-2.1-1.6-3.3-.6-.1-1.1-.5-1.5-.9z"/><path class="st4" d="M194.8 167.2c1-.6 2.1-1 3.4-1.3 1.3-.4 2.6-.6 4-.8 2.7-.4 5.5-.5 7.8-.6 2.9-.1 5 0 6.7.1 1.7.1 3 .2 4.3.4.4 0 .7.1 1.1.2 2.6.2 5.3.4 7.9.8 3 .4 6.1.8 9.2 1.3 3 .5 6.1 1 9.3 1.6-1-.2-1.6 0-2.7-.2-4.7-.6-9.1-1.3-13.4-1.8.9.2 2.1.4 3.4.7 4.7.4 9.6 1.1 14.5 1.9 6.3 1 12.6 2.3 19.1 3.8 1.6.4 3.3.8 4.9 1.2 3.2.8 6.4 1.5 9.7 2.4 1.1.3 2.3.7 3.4 1.1 1.4.4 2.9 1 4.4 1.6 5.3 1.8 10.5 3.8 15.5 6-12.1-6-28.9-11.9-47.6-16.3-36.4-8.5-66.4-8.2-68 .7l.5.1c.1-.2.2-.5.3-.7.5-1 1.3-1.7 2.3-2.2zm30.5-2.9c6.9.7 14.2 1.7 21.6 3.1 3.3.6 8.2 1.5 14.1 2.9 1.6.4 3.2.8 5 1.2.5.1 1.5.4 2.8.8-2.5-.6-5-1.3-7.4-1.8-4-.9-8.1-1.8-12-2.6-1.6-.3-3.3-.6-4.9-.9-7.1-1.2-14.2-2.1-20.6-2.5-3.9-.3-7.6-.5-10.9-.5-3.3-.1-6.2 0-8.7.1 6.1-.8 13.4-.6 21 .2z"/><path class="st3" d="M214.1 167.5c-1.9 0-3.7.2-5.2.4 1.2-.4 2.9-.6 4.9-.8 2-.1 4.2-.2 6.2-.2 4.8.2 9.9.6 15.1 1.3-3.5-.6-6.7-1.1-9.6-1.4-.9 0-1.8-.1-2.7-.1h-6c-1.9-.1-3.6 0-5.3.1-1.7.1-3.3.3-4.7.5-1.4.2-2.7.6-3.9 1-1.1.4-2 .9-2.7 1.4-.7.5-1.2 1.1-1.4 1.8l1 .2c0-.3.1-.6.2-.8.1-.3.4-.5.5-.7.3-.2.5-.4.9-.6 1.3-.7 3.2-1.1 5.4-1.3 4.4-.4 9.7-.1 15.1.4 4.2.3 7.6.8 11.8 1.3.2.1.5.2.8.3.5.1 1.1.2 1.9.4 1.6.2 6.8.8 11.9 1.6 5.1.8 10.2 1.7 11.1 1.7.2 0-1.3-.4-3.6-.9-.5-.1-1.1-.3-1.7-.4-3.4-.8-8-1.7-12.5-2.5-4.6-.8-9.1-1.4-12.4-1.8-2.7-.3-4.6-.5-5.2-.6-1.3 0-2.6-.1-3.9-.1-2-.2-4-.2-6-.2z"/><path class="st3" d="M329.5 195.9c-2.4-2.2-5.3-4.4-8.6-6.4s-6.8-3.9-10.6-5.7c-7.5-3.5-15.6-6.7-23.9-9.5-1.8-.6-7.2-2.1-6.5-2.5-4.7-1.4-9.4-2.6-14.1-3.7-3.5-.8-7-1.6-10.5-2.3-8.1-1.7-16-3-24-4.1-3.3-.4-6.6-.7-9.8-.8-3.2-.1-6.3-.1-9.4-.2-5.1-.1-9.8.3-13.7 1.2-3.9.9-7.2 2.4-8.9 4.5-.2.1-.4.3-.6.5-.2.2-.5.4-.7.7-.2.2-.4.5-.5.7 0 .1-.1.2-.1.3l1.2.3c.2-.7.5-1.3.9-1.8.9-1 2.2-1.8 3.7-2.4 1.5-.6 3.3-.9 5.1-1.1 1.6-.4 3.4-.6 5.2-.8-1.9.4-4.1.8-5.8 1.2-.2.1-.3.1-.4.2-.6.1-.9.1-1.2.2-.4.2-.9.4-1.4.7-.5.2-.9.5-1.4.8-.9.6-1.7 1.3-2.3 2.3-.2.4-.4.8-.5 1.2l.9.2c1.6-8.8 31.6-9.2 68-.7 18.7 4.4 35.6 10.3 47.6 16.3.7.3 1.3.6 2 .9-.3-.1-.6-.2-.9-.4 4.1 2.1 7.6 4.1 10.4 6.2.7.4 1.3.9 2 1.3 1.6 1.1 3.1 2.3 4.4 3.5 1.7 1.7 2.9 3.4 3.4 5.1l4.8 1.1v-.5c-.2-1.9-1.7-4.2-3.8-6.5z"/><path class="st5" d="M200.3 169.7c.7-.5 1.6-1 2.7-1.4 1.1-.4 2.4-.7 3.9-1 1.5-.2 3.1-.4 4.7-.5 1.7-.1 3.5-.1 5.3-.1 1.7.1 3.8 0 6 0 .9 0 1.8 0 2.7.1-.4-.1-.9-.1-1.3-.2-2.8-.2-5.5-.2-8-.2-1.7 0-3.4 0-5.1.1-1.7.1-3.3.2-4.9.4-1.5.2-3 .4-4.3.8-1.3.3-2.4.8-3.2 1.3-1 .6-1.6 1.3-1.8 2l1.9.5c.3-.7.7-1.3 1.4-1.8z"/><path class="st2" d="M222.2 165.1c-.4-.1-.8-.1-1.1-.2-1.3-.1-2.6-.3-4.3-.4-1.7-.1-3.9-.2-6.7-.1-2.3.1-5.1.2-7.8.6-1.3.2-2.7.4-4 .8-1.3.3-2.5.8-3.4 1.3-1 .5-1.8 1.2-2.2 2-.2.2-.2.5-.3.7l1.4.3c.1-.1.2-.2.2-.3.4-.6 1-1.1 1.7-1.6 1-.7 2.2-1.2 3.2-1.6-.9.4-1.6.9-2.2 1.3.4-.2.9-.4 1.5-.6 1-.4 2.2-.7 3.6-1.1-.6.1-1.1.2-1.5.3-.6.1-.9.2-1 .2 0 0 .1 0 .2-.1.5-.2 1.6-.5 3.5-.8.6-.1 1.2-.2 1.9-.2.4 0 .8-.1 1.2-.1.7-.1 1.4-.1 2.2-.1 1.3-.2 2.6-.4 4.4-.5 2.9-.1 6.2 0 9.5.2z"/><path class="st4" d="M241.9 166.6s.1 0 .4.1c.4.1 1 .2 2 .3 1.6.3 3.3.6 4.9.9-.8-.2-1.6-.3-2.3-.4-1.2-.2-2.3-.4-3-.5-1.4-.3-2-.4-2-.4z"/><path class="st3" d="M292.7 181.8c-2-.7-4.1-1.5-6.2-2.1-6.8-2.2-13.8-4.2-21-5.8-1.4-.3-2.7-.6-4.1-.9 2.2.6 5.1 1.3 6.5 1.6 6.7 1.7 13.3 3.7 19.7 5.9 3.9 1.3 7.8 2.8 11.5 4.3 1 .3 1.9.6 3 .9-2.9-1.4-6.1-2.6-9.4-3.9z"/><path class="st5" d="M220 167c-2 0-4.2 0-6.2.2s-3.7.4-4.9.8c1.6-.2 3.3-.4 5.2-.4 1.9 0 4 0 6.1.1 1.3 0 2.6.1 3.9.1h-.2c.1 0 1.2 0 2.9.2 3.2.2 6.4.4 9.7.7l-1.5-.3c-5.1-.8-10.2-1.2-15-1.4z"/><path class="st3" d="M238.4 168.7c2.7.4 5.3.8 8 1.3-1.4-.3-2.8-.6-4.1-.8-1.3-.2-2.6-.3-3.9-.5z"/><path d="M242.8 185.3c2.2 1.6 7.1 5.3 14.5 11.1 7.9 6.2 13.9 10.6 18 13.4 4.1 2.8 7.1 4.4 8.8 4.9 1.8.5 5 .9 9.6 1.2.2.6.2 1.2.2 1.9 0 2.6-.7 4.6-2 6-1.4 1.4-3.2 2.2-5.5 2.2s-5.1-.9-8.4-2.6c-3.3-1.7-9.2-5.8-17.9-12.3l-13.8-10.5c-4.7-3.8-9.1-6.5-13.3-8.3-1-.2-2.2.4-3.7 1.6-1.3 2.5-2.1 5.8-2.7 9.6-.5 3.9-.8 6.9-.8 9-.6 11.1-2.9 16.7-6.9 16.7-1.6 0-2.8-.5-3.8-1.5-.9-1-1.4-2.3-1.4-3.9 0-1.2.3-2.8.8-5 1.2-5 2.9-19.5 5-43.6.7-7.4 1.6-14.8 2.7-22.3s1.9-11.9 2.5-13.3c.6-1.4 1.3-2.4 2.2-3 .9-.6 1.8-1 2.7-1 3.8 0 5.6 2.3 5.5 6.8-2.8 11.5-4.5 22.1-5.2 32-.2 3.1-.6 6.2-1 9.3v.5c0 .1.2.1.6-.1.4-.2 1.7-1.1 3.8-2.7 2.2-1.6 4.5-3.5 7-5.6 2.5-2.1 4.5-4 6-5.7.9-1.1 2.2-2.3 3.7-3.7 5-4.5 8.7-8 11.1-10.6s4.7-5.7 6.8-9.3c2.9-5.2 5.1-7.8 6.4-7.8 1.4 0 2.9.8 4.4 2.3 1.5 1.5 2.3 3 2.3 4.5 0 3.9-6.1 11.2-18.4 21.9-2.7 2.3-4.4 3.9-5.2 4.7-1 1.4-6 5.8-14.6 13.2z"/><path d="M288.9 149.6c-2.3-.8-3.5-2.9-3.5-6.2 0-2.6 5.3-5.2 16-7.7s20-3.7 27.9-3.7c8.8 0 15.8 1.8 20.9 5.4 5.2 3.6 7.8 8.5 7.8 14.5 0 8.9-4.9 16.9-14.7 24-9.8 7.1-23.1 12.3-39.7 15.6-4.4.9-6.9 1.6-7.4 2.2-.5.6-1 4.2-1.3 10.8-.3 6.6-.5 11.2-.5 13.8 0 1.8-.6 3.5-1.7 4.9s-2.5 2.2-4 2.2c-3.6 0-5.3-2.4-5.3-7.2 0-2.6.7-9.9 2.2-21.9l4.3-35.9c.1-.6.2-2.3.1-5.2-.1-3-.5-4.9-1.1-5.6zm12.6-3.5c-.3 1.2-.6 3.3-.8 6.5-.6 5.6-1.3 11.8-2.1 18.6-.4 3.6-.9 7.4-1.3 11.6 13.3-1.8 25.1-5.5 35.4-11.1 10.3-5.6 15.4-11.8 15.4-18.5 0-8.2-6.4-12.4-19.1-12.4-8.4 0-17.6 1.8-27.5 5.3z"/><path class="st0" d="M302.4 206.6h1.1c.3 0 .5-.1.8-.1-.7.1-1.3.1-1.9.1zM213.5 188.4c-1.5-.7-2.9-1.3-4.3-2 2.3 1.3 4.9 2.6 8 4.1.7.3 1.5.7 2.3 1 2.2.9 4.4 1.7 6.7 2.5l-.6-.3c-2.9-1.2-5.8-2.5-8.7-3.9-1.2-.4-2.3-.9-3.4-1.4zM310.7 209.4c-3.6.5-7.6.8-11.7.9 3.8 0 7.4-.1 10.8-.5 2.7-.3 5.2-.7 7.4-1.3-.7.1-1.3.3-2 .4-1.5.3-3 .4-4.5.5zM234 196.9c-2.4-.8-4.7-1.6-7-2.5-1.5-.6-3.4-1.2-5.4-1.9 2.6 1.1 5.5 2.3 8.6 3.5.2.1.3.1.5.2 1.8.6 3.6 1.2 5.5 1.8 1.2.3 2.3.6 3.5.9-2.1-.7-4-1.3-5.7-2zM309.4 186.3c-.7-.3-1.3-.6-2-.9.4.2.7.4 1.1.5.3.1.6.3.9.4zM314.4 191.7c1.2.6 2.3 1.3 3.4 2-1.1-.7-2.2-1.4-3.4-2zM242.4 199.6c.9.2 1.7.4 2.6.6-1.2-.3-2.5-.7-3.7-1 .4.1.7.3 1.1.4zM200 172.5v.4c0 .1 0 .3-.1.5 0 .3-.1.7 0 1 1.1 1.9 4.1 4 7.4 5.9 3.4 1.9 7.3 3.7 11.3 5.6 5 2.2 10.9 3.9 16.3 5.8 6.2 2.2 12.7 4 19.2 5.6.2.1.5.1.7.2 6.8 1.6 13.6 2.8 20.3 3.8-.1.2.4.4 1.2.6 1.4.3 3.5.6 4.4.7 6.9 1 13.6 1.6 19.4 1.5 2.9 0 5.5-.2 7.8-.5 2.2-.3 4.1-.9 5.2-1.5 1.3-.6 2-1.3 2.2-2.1 0-.3 0-.6-.1-.9L199.9 172c0-.1 0 .2.1.5z"/><path class="st0" d="M326.9 204.2c-.5 1.3-1.7 2.5-3.4 3.4-3.4 1.8-8.4 2.8-13.9 3.2 3.7-.1 7.3-.4 10.5-1.1 2.2-.5 4.2-1.2 5.7-2.2 1.5-.9 2.5-2.1 3-3.4.2-.7.1-1.4-.1-2.2l-1.6-.4c.2 1 .1 1.9-.2 2.7zM321.5 202.2l.1-.5c.1-.3 0-.6 0-.9 0-.2-.1-.4-.1-.6l-1.6-.4c.2.6.3 1.2.2 1.8-.2.8-.7 1.5-1.5 2.2-1.2.9-2.9 1.6-4.9 2.1 2.9-.5 5.2-1.2 6.6-2.1.4-.4.8-.8 1-1.3l.2-.3zM235.2 196.9c1.9.6 3.9 1.2 5.8 1.7-2.6-.8-5.1-1.6-7.6-2.4.6.2 1.2.4 1.8.7z"/><path class="st0" d="M325.1 197.9c.5.6.9 1.2 1.3 1.8.4.6.6 1.3.7 1.9l1.6.4c-.4-1.7-1.6-3.4-3.4-5.1-1.2-1.2-2.7-2.4-4.4-3.5-.6-.4-1.3-.9-2-1.3 2.8 2 4.9 3.9 6.2 5.8zM238.4 168.7c1.3.1 2.6.3 3.9.4-1.4-.3-2.8-.6-4.1-.8-3-.5-6-.9-8.9-1.2-1.1-.1-2.4-.2-3.7-.3 2.9.4 6.1.8 9.6 1.4 1 .2 2.1.4 3.2.5z"/><path class="st0" d="M286.5 174.4c8.4 2.8 16.5 6 23.9 9.5 3.7 1.8 7.3 3.7 10.6 5.7s6.2 4.2 8.6 6.4c2.1 2.2 3.6 4.5 3.9 6.7l.8-18.4-68.3-16c4.7 1.1 9.4 2.3 14.1 3.7-.8.2 4.6 1.8 6.4 2.4zM187.8 168.5c.1-.2.3-.5.5-.7.2-.2.4-.5.7-.7.2-.2.4-.4.6-.5 1.8-2.1 5-3.6 8.9-4.5 3.9-.9 8.6-1.4 13.7-1.2 3.1 0 6.2.1 9.4.2s6.5.3 9.8.8c7.9 1.1 15.9 2.5 24 4.1 3.5.7 7 1.5 10.5 2.3l-77.5-18.2-.8 18.7c.1-.1.1-.2.2-.3z"/><path class="st0" d="M228.5 166.9h-.8c.3-.1.6-.1.8 0z"/><path class="st0" d="M224.3 166.7c1.3.1 2.7.2 4 .3-.8-.2-1.8-.4-2.9-.5h-.1c-1.3-.2-2.6-.3-3.8-.4-1.9-.1-3.9-.2-5.7-.1h-1.4c2.4.1 5.2.3 8.3.7.5-.1 1.1 0 1.6 0zM187.6 168.8v0zM333.1 205.7c-.4.9-1 1.8-1.9 2.6-.4.4-1 .7-1.5 1.1-.6.3-1.1.7-1.7.9-.3.1-.6.3-.9.4-.3.1-.6.2-1 .4-.6.3-1.3.5-2 .7-2.8.8-5.8 1.3-9 1.6-6.3.6-13.2.6-20.7-.1-9.7-1-19.1-2.5-29.7-4.5-.8-.1-1.5-.3-2.3-.5-1.2-.3-2.4-.6-3.2-.9-.7-.2-1.2-.4-1.4-.5-.2-.1 0-.1.5-.1 1.8.3 3.7.6 5.6.9 5.1 1 10.4 1.8 15.7 2.5 5.2.6 10.4 1.1 15.5 1.6 3.6.2 7.6.5 11.5.6 1.6-.1 5 0 5.9-.5-5.5.3-11.4.1-17.3-.3-6-.5-12.1-1.3-18.2-2.3.6 0 1.2-.1 2.1.1l-.6-.4s.3 0 .8.1 1.1.1 1.7.2h-.2c-.7-.2-2-.4-3.2-.6-1.2-.2-2.3-.4-2.7-.5-.2-.1-.2-.1.3 0 5.3.6 10.6 1.2 16 1.8.9 0 1.7 0 2.6.1-.4 0-.7.1-1.1.1 1 .1 1.9.2 2.9.3h2.8c1.5-.2 2.9-.4 4.4-.6-5 0-10.2-.4-15.6-1-6.7-.7-13.5-1.8-20.4-3.2-1-.2-2.9-.5-4.8-1-.6-.2-1.3-.3-1.9-.5l-4.2-.9c-1.1-.2-2.1-.5-3.2-.7-2.4-.6-4.9-1.2-7.3-1.8.3.1.7.2 1 .3-.9-.3-1.8-.5-2.6-.8-2.5-.7-5.1-1.5-7.7-2.3-1-.3-2-.6-3-.8 4.2 1.6 8.9 3.1 14 4.7-.6-.2-2.8-.7-5.7-1.6-2.9-.9-6.6-2-10.1-3.3-3-1-6-2.1-8.4-3.1-1.7-.6-3.4-1.2-5.1-1.9 1 .5 2.8 1.2 5.1 2.2 3.8 1.5 9 3.4 14.3 5.2 5.3 1.7 10.7 3.3 14.7 4.3 1 .3 1.9.5 2.7.7.8.2 1.5.4 2 .5 1.1.3 1.7.4 1.6.4-.8-.1-5-.9-10-2-1.1-.3-2.3-.5-3.5-.8-6.4-1.6-13-3.6-14.9-4.3-1.4-.6-2.7-1-3-1.4-5.1-1.8-9.1-3.6-14.1-5.9-3.1-1.5-6.1-3.1-8.9-4.8-2.8-1.7-5.4-3.4-7.7-5.3-2.3-1.8-4.4-3.7-5.9-5.7s-2.5-4-2.7-5.9l-.9 21.4 145.7 34.2.9-19.8c0 .2 0 .4-.1.7zM246.6 169.7c-.7-.1-1.4-.2-2.2-.4.2.1.4.1.6.2.6.1 1.1.2 1.6.2zM305.6 187.6c-3.4-1.4-7-2.7-10.5-3.8 3.5 1.2 6.9 2.5 10.2 3.9 1.9.8 3.8 1.7 5.5 2.6-1.6-1-3.4-1.8-5.2-2.7z"/><path class="st0" d="M290 208.6c-7.1-.7-15-1.9-23.3-3.6l-5.1-.9c-1.3-.3-2.6-.5-4-.8.4.2 1.3.5 2.4.8 8.7 1.8 17.3 3.2 25.5 4.1 1.6.1 3 .3 4.5.4zM248.2 170.3c.3.1.7.2 1 .2-1-.2-1.9-.4-2.8-.6-2.7-.5-5.3-.9-8-1.3-.6-.1-1.2-.1-1.7-.2 4.1.7 8.6 1.6 13.4 2.8-1.1-.2-7.5-1.5-13.7-2.4-3.6-.5-7.1-.9-9.4-1.1-.9 0-1.8-.1-2.7-.1.5.1 2.4.3 5.2.6 3.3.4 7.8 1 12.4 1.8 4.5.8 9.1 1.7 12.5 2.5.6.1 1.2.3 1.7.4 2.4.6 3.8.9 3.6.9-.9 0-5.9-1-11.1-1.7-5.2-.8-10.4-1.4-11.9-1.6-.7-.2-1.4-.2-1.9-.4-.4-.1-.6-.2-.8-.3-4.2-.5-7.5-1-11.8-1.3-5.4-.5-10.7-.8-15.1-.4-2.2.2-4.1.6-5.4 1.3-.4.2-.6.4-.9.6-.2.2-.5.4-.5.7-.2.3-.2.5-.2.8l115.3 27.1c0-.1-.1-.3-.1-.4-.2-.5-.6-1-1.1-1.5-1.1-1.1-2.7-2.3-4.7-3.4s-4.2-2.2-6.5-3.3c-4.7-2.1-9.8-4.1-15.4-6.1-7-2.6-14.2-4.8-22.3-6.7-.2 0-.3-.1-.5-.1s-.4-.1-.6-.1c-1.4-.3-2.8-.7-3.8-1.1-1.1-.4-1.7-.7-.7-.5 1.5.2 3 .5 4.5.7l5.1 1.2c2.5.6 5.1 1.2 7.7 1.9 4.3 1.1 8.7 2.4 12.7 4 3 1 6.1 2.3 9 3.6 1.3.5 3.6 1.6 5 2h.2c-4.3-2.1-9-4-13.8-5.8-4.8-1.8-9.8-3.4-14.9-4.9.4.1.8.1 1.3.2.2 0 .4.1.6.2l-.3-.3s1.1.3 2.1.6c-.7-.3-2.3-.8-3.6-1.2-1.2-.4-2.1-.6-1.1-.4l1.5.3c4.2 1 8.5 2.3 12.6 3.8.8.2 1.6.5 2.4.7-.4-.1-.8-.2-1.2-.2.8.3 1.6.6 2.5.9.9.3 1.7.6 2.6.9.1 0 .3.1.4.1 1.4.3 2.7.7 4.2 1-3.7-1.5-7.5-3-11.5-4.3-6.4-2.2-13-4.1-19.7-5.9-1.3-.3-4.2-1-6.5-1.6-1.4-.3-2.7-.6-4.1-.9-3.1-.6-6.2-1.2-9.2-1.7z"/><path class="st1" d="M322.7 204.9c-.7.7-1.6 1.3-2.7 1.9-.6.3-1.2.5-1.8.8.2-.1.5-.1.7-.2 2.9-.9 5.1-2.3 5.7-4.2.2-.7.2-1.4 0-2.1l-.9-.2c.5 1.4.1 2.8-1 4z"/><path class="st1" d="M307.2 209.1c2.9-.4 5.8-.8 8.4-1.4 2-.5 3.7-1.1 5-2-.7.4-1.6.7-2.5 1-3.4 1.1-7.6 1.6-12 1.8-2.2.1-4.5.1-6.9.1-2.4 0-4.8-.2-7.2-.3-8.2-.6-16.7-1.7-25.3-3.2 8.3 1.7 16.1 2.9 23.3 3.6 6 .4 11.8.6 17.2.4zM212.3 165.4c.6 0 1.2.1 1.7.1-.5-.1-1.1-.1-1.7-.1zM207.3 165.5c-.9 0-1.8.1-2.6.2-.2 0-.5.1-.7.1-.9.2-1.8.4-2.5.6.7-.1 1.7-.2 2.9-.3.9-.3 1.9-.5 2.9-.6zM244.8 199s0 .1 0 0c.6.1 1 .2 1.4.2.4 0 .8.1 1.2.2-6.3-1.6-12.1-3.5-17.9-5.6-3.5-1.3-7-2.6-10.6-4.1 2 1 4.2 2.1 9 4.1.2.1.4.2.6.2.1.1.3.1.4.2 5.2 1.9 10.3 3.5 15.9 4.8zM194.5 170.4l.3-.6c.4-.6.9-1.1 1.7-1.7-.8.4-1.4.8-2 1.2l-.6.6c-.1.1-.1.2-.2.3l.8.2zM194.2 170.9c.1-.2.2-.3.3-.4l-.8-.2-.3.6c-.1.2-.1.4-.2.5v.6c.1.9.5 1.9 1.6 3.2-.4-.6-.6-1.2-.7-1.7-.3-1-.3-1.9.1-2.6zM245.9 198.1c.9.2 1.7.5 2.6.7 2.9.8 5.9 1.5 8.9 2.2 2.9.7 5.8 1.3 8.8 1.9-.6-.1-1.1-.2-1.5-.3-.2-.1-.4-.1-.5-.1-2.6-.5-5-1.1-7.2-1.6-4.6-1.1-8.4-2.1-11.1-2.8z"/><path class="st1" d="M241.6 196.9s.7.2 1.8.5c.7.2 1.5.4 2.5.7-6.8-1.9-13.5-4.1-19.8-6.5-7.1-2.7-13.8-5.7-19.4-9.1 3.7 2.6 10.1 5.8 17.5 8.6 6.9 2.7 14.8 5.1 22.4 7.2-2.5-.7-4.1-1.1-4.7-1.3-.2 0-.3-.1-.3-.1z"/><path class="st1" d="M311 206.6c-3.2.6-6.9.8-10.9.8s-8.4-.3-13-.8c6.7.7 11.9.6 16.3.1h-1.1c-4.3.1-9 0-13.8-.4-1.5-.2-2.9-.4-4.2-.5-1-.1-2.1-.2-3.1-.4-2.9-.2-5.8-.5-8.8-.8-7.7-1.1-15.4-2.6-23.2-4.4-.2 0-.4-.1-.6-.1-5.1-1.2-10.3-2.5-15.5-4.1.1 0 .2.1.3.1 2.5.8 5 1.6 7.6 2.4 3.6 1 7.2 1.9 10.8 2.8 3.5.8 6.9 1.5 10.3 2.2 12 2.3 23.8 3.8 34.7 4.2 5.4.1 10.6 0 15.1-.7 2.2-.4 4.3-.9 5.9-1.6 1-.4 1.8-.9 2.4-1.5-1.5 1-3.7 1.7-6.6 2.1-.8.3-1.7.5-2.6.6zM201.5 181.2c-1.8-1.1-3.2-2.2-4.3-3.2 0 .1.1.1.2.2l1 1c.4.4.9.8 1.5 1.2.4.3.7.6 1.1.9 1 .6 2.1 1.2 3.2 1.8-1-.7-1.9-1.4-2.7-1.9z"/><path class="st3" d="M321.6 200.8c0 .3.1.6 0 .9l-.1.5-.2.4c-.2.5-.6.9-1 1.3 1.2-.8 1.9-1.8 2-3v-.5l-.8-.2c0 .3.1.5.1.6zM216.8 189.9c-.5-.3-1.1-.5-1.6-.8-.5-.2-.9-.5-1.4-.7-3.7-1.7-7-3.4-9.9-5.1 1.5 1 3.2 2 5.2 3.1 1.4.7 2.9 1.4 4.3 2 1.2.5 2.3 1 3.4 1.5zM315.3 199.7c-.1.8-.8 1.5-2.2 2.1-1.1.7-3 1.2-5.2 1.5-2.2.4-4.9.5-7.8.5-5.8 0-12.4-.5-19.4-1.5-.9-.1-3-.3-4.4-.7-.8-.2-1.3-.4-1.2-.6-6.7-.9-13.6-2.2-20.3-3.8-.2-.1-.5-.1-.7-.2-6.5-1.5-13-3.4-19.2-5.6-5.4-1.9-11.3-3.5-16.3-5.8-4-1.8-7.8-3.6-11.3-5.6-3.4-1.9-6.3-4-7.4-5.9-.1-.3-.1-.6 0-1 0-.2.1-.3.1-.5 0-.1.1-.3 0-.4-.1-.3-.1-.5-.1-.8l-1-.2c-.6 1.9.7 4.3 3.4 7 1.2.9 2.4 1.8 3.9 2.6-1.9-1-3.6-2.1-4.7-3.1-.2-.1-.3-.2-.5-.3-.2-.3-.4-.5-.5-.6-1.7-1.2-3.1-2.7-3.5-4.2-.2-.6-.2-1.3.1-1.9l-1-.2c0 .2-.1.4-.1.6-.3 7.8 27.7 20.8 62.6 29 17 4 32.4 6.1 43.9 6.3.6 0 1.2 0 1.8-.1-.3 0-.5.1-.8.1 4 0 7.4-.2 10.2-.6 2-.5 3.7-1.2 4.9-2.1.8-.6 1.3-1.4 1.5-2.2.1-.6 0-1.2-.2-1.8l-4.7-1.1c.1.5.1.8.1 1.1zM234 196.9c-3.2-1.2-5.8-2.2-8-3-.2-.1-.3-.1-.5-.2l.6.3c-2.2-.8-4.5-1.6-6.7-2.5l2.1.9c2 .7 3.9 1.4 5.4 1.9 2.4 1 4.7 1.8 7.1 2.6zM241 198.5c-1.9-.5-3.9-1.1-5.8-1.7.2.1.5.2.7.3 1.7.7 3.6 1.4 5.4 2.1 1.2.4 2.5.7 3.7 1 .6.1 1.2.3 1.8.4 3.5.8 7.1 1.6 10.6 2.3 0 .1.1.2.3.3 1.3.3 2.7.5 4 .8l5.1.9c-2.7-.6-5.5-1.2-8.4-1.8-6-1.3-11.8-2.9-17.4-4.6z"/><path class="st4" d="M196.3 176.6c-1.1-1-1.8-2.1-2.2-3.2.1.5.4 1.1.7 1.7.4.5.9 1 1.5 1.5zM204.2 183c-1.1-.6-2.1-1.2-3.2-1.8l.9.6c.6.4 1.3.9 2.1 1.4 2.9 1.7 6.2 3.4 9.9 5.1-3-1.5-5.7-3-8.1-4.5-.6-.2-1.1-.5-1.6-.8zM195.9 171.3c0-.2 0-.4.1-.6l-.3-.1c-.1.2-.1.4-.2.6 0 .3-.1.6-.1 1 0 .7.3 1.5.7 2.3.4.8 1.1 1.7 1.9 2.5.8.9 1.7 1.7 2.8 2.5 2.1 1.6 4.5 3.2 6.7 4.4 2.7 1.5 4.8 2.5 6.4 3.3l4 2c.4.2.7.3 1.1.5 3.5 1.5 7 2.8 10.6 4.1 5.8 2.1 11.6 3.9 17.9 5.6-.4-.1-.8-.1-1.2-.2-.4 0-.8-.1-1.3-.2h-.1c-5.6-1.3-10.7-2.9-15.8-4.8-.1-.1-.3-.1-.4-.2 1 .4 2.6 1.1 4.6 1.9 5.2 1.5 10.4 2.9 15.5 4.1.2 0 .4.1.6.1 7.8 1.8 15.5 3.3 23.2 4.4 3 .4 5.9.6 8.8.8 1.1.1 2.1.3 3.1.4 1.3.1 2.7.3 4.2.5 4.8.3 9.4.5 13.8.4-11.5-.2-26.9-2.3-43.9-6.3-35-8.1-63-21.1-62.7-29zm68.8 31.4c.4.1.9.2 1.5.3.2 0 .4.1.6.1-.2 0-.4-.1-.6-.1-2.9-.6-5.9-1.2-8.8-1.9-3-.7-6-1.5-8.9-2.2-.7-.2-1.3-.3-1.8-.5-7.6-2-15.5-4.5-22.4-7.2-7.5-2.9-13.8-6-17.5-8.6 5.6 3.3 12.4 6.3 19.4 9.1 6.3 2.4 12.9 4.6 19.8 6.5 2.7.7 6.5 1.7 11.1 2.8 2.2.5 4.6 1.1 7.2 1.6 0 0 .2 0 .4.1z"/><path class="st4" d="M303.4 206.7c-4.4.5-9.6.6-16.3-.1 4.6.5 8.9.8 13 .8 4 0 7.7-.2 10.9-.8l2.7-.6c-2.9.5-6.3.7-10.3.7zM194.8 169.8l-.3.6c.9-1.2 2.6-2 3.9-2.3 1-.6 2.4-1.1 4-1.4.6-.2 1.3-.5 2.1-.7-1.2.1-2.1.2-2.9.3-1.5.4-2.6.7-3.6 1.1l-1.5.6c-.8.6-1.3 1.2-1.7 1.8z"/><path class="st4" d="M197.2 168.8c-.6.4-1.1.9-1.4 1.6-.1.1-.1.2-.1.3l.3.1c.2-.8.6-1.4 1.2-2zM208.1 165.4c-.8 0-1.5.1-2.2.1-.4 0-.8.1-1.2.1.8-.1 1.7-.1 2.6-.2h.8zM193.7 170.2c-.2.3-.4.7-.4 1.1 0-.2.1-.4.2-.5 0-.2.1-.4.2-.6zM320.6 197.2c1 1.2 1.5 2.3 1.6 3.3l.6.1c0-.1-.1-.3-.1-.4-.4-1-1.1-2-2.1-3zM193.9 169.9c-.1.1-.2.2-.2.3.1-.1.1-.2.2-.3zM199.3 179.5c-1.5-1.2-2.4-2.1-2.8-2.5-.1-.1-.2-.2-.3-.2-.1 0 .1.2.5.7.1.2.3.3.5.5 1.1 1 2.5 2.1 4.3 3.2-.8-.6-1.6-1.2-2.2-1.7zM194.4 170.5c0-.1.1-.1 0 0 .1-.1 0-.1 0 0zM243.4 197.4c-1.1-.3-1.7-.5-1.8-.5 0 0 .1 0 .3.1.6.2 2.1.6 4.7 1.3.6.2 1.2.3 1.8.5-.9-.2-1.7-.5-2.6-.7-.9-.3-1.7-.5-2.4-.7z"/><path class="st4" d="M299.2 208.6c2.4.1 4.7 0 6.9-.1 4.5-.2 8.7-.7 12-1.8.9-.3 1.8-.6 2.5-1 .8-.5 1.4-1 1.8-1.6.6-1 .8-2.2.4-3.5l-.6-.1v.5c-.1 1.2-.7 2.2-2 3-.6.6-1.5 1-2.4 1.5-1.6.7-3.7 1.2-5.9 1.6-4.5.7-9.7.9-15.1.7-10.9-.3-22.7-1.8-34.7-4.2-3.4-.7-6.9-1.4-10.3-2.2-3.6-.8-7.2-1.8-10.8-2.8 5.5 1.7 11.3 3.2 17.3 4.6 2.8.7 5.6 1.3 8.4 1.8 8.6 1.5 17.1 2.7 25.3 3.2 2.4.2 4.8.3 7.2.4z"/><path class="st4" d="M248.5 198.8c-.6-.2-1.2-.3-1.8-.5.5.2 1.1.4 1.8.5zM266.2 203c.2 0 .4.1.6.1-.2 0-.4-.1-.6-.1z"/><path class="st3" d="M313.8 208.9c-1 .2-2 .4-3.1.6 1.5-.1 3-.3 4.4-.5.7-.1 1.4-.2 2-.4.9-.2 1.8-.5 2.6-.8-1.7.4-3.7.8-5.9 1.1zM290 208.6c-1.4-.1-2.9-.3-4.4-.4-8.2-.9-16.8-2.3-25.5-4.1.6.2 1.2.3 1.9.5 1.8.4 3.8.8 4.8 1 6.9 1.4 13.8 2.4 20.4 3.2 5.3.6 10.6.9 15.6 1 .7-.1 1.4-.2 2.2-.3-4.5-.1-9.5-.4-15-.9z"/><path class="st4" d="M307.2 209.1c-5.4.2-11.3 0-17.2-.5 5.5.5 10.5.8 14.9.8h.2c.8-.1 1.5-.2 2.1-.3zM321 207.2c2.9-1.3 4.5-3.3 4.1-5.7 0-.1-.1-.3-.1-.4l-.3-.1c.2.7.2 1.5 0 2.1-.6 1.9-2.9 3.3-5.7 4.2-.2.1-.5.1-.7.2-.7.2-1.4.5-2.1.7l-2.4.6c2.2-.3 4.2-.7 5.9-1.2.4-.1.9-.2 1.3-.4zM314.4 191.7c-.1-.1-.3-.2-.4-.2.1 0 .2.1.4.2z"/><path class="st3" d="M217 191.5c-.1 0 .2.1.8.4 1.7.7 3.4 1.3 5.1 1.9-.4-.2-.9-.3-1.3-.5-2.5-1-4.3-1.7-4.6-1.8zM233.2 197.1c1 .3 2 .6 3 .8-1.8-.6-3.6-1.2-5.5-1.8.8.4 1.6.7 2.5 1zM236.1 197.9c2.6.8 5.1 1.6 7.7 2.3-1.5-.4-2.8-.9-4.2-1.3-1.1-.3-2.3-.6-3.5-1zM257.4 203c-3.5-.7-7.1-1.5-10.6-2.3-.6-.1-1.2-.3-1.8-.4-.9-.2-1.7-.4-2.6-.6 1.1.4 2.1.7 3 1 2.5.7 4.9 1.3 7.3 1.8 1.1.3 2.1.5 3.2.7l4.2.9c-1.1-.3-2-.6-2.4-.8-.2-.1-.3-.2-.3-.3zM231.3 196.9c3.6 1.2 7.2 2.4 10.1 3.3 2.9.9 5.1 1.5 5.7 1.6-5.1-1.6-9.8-3.1-14-4.7-3.4-1-6.8-2.1-10.2-3.3 2.5 1 5.4 2.1 8.4 3.1z"/><path class="st3" d="M196.2 180.7c2.3 1.8 4.9 3.6 7.7 5.3 2.8 1.7 5.8 3.3 8.9 4.8 5 2.3 9 4.1 14.1 5.9.3.4 1.6.8 3 1.4 2 .7 8.6 2.7 14.9 4.3 1.2.3 2.3.6 3.5.8 5 1.2 9.2 2 10 2 .1 0-.5-.2-1.6-.4-.6-.1-1.2-.3-2-.5s-1.7-.5-2.7-.7c-4-1.1-9.4-2.6-14.7-4.3-5.3-1.7-10.6-3.6-14.3-5.2-2.3-.9-4.1-1.7-5.1-2.2-.8-.3-1.5-.6-2.3-.9-2.4-1.1-4.8-2.2-7.1-3.3-2.3-1.2-4.6-2.3-6.8-3.6 4.3 2.1 10 4.7 14.7 6.6 4.7 2 9.6 3.8 14.4 5.5-.2-.1-.3-.1-.5-.2-3.1-1.2-6-2.4-8.6-3.5-.5-.2-1.1-.4-1.6-.6-2.6-.9-5.1-1.9-6.9-2.8-4.1-1.9-8.2-3.9-12-6.2-1.9-1.1-3.8-2.4-5.5-3.6-1.7-1.3-3.3-2.7-4.5-4.1-1.2-1.4-2-2.9-2.3-4.3-.1-.6-.1-1.2.1-1.8l-1.2-.3c0 .1-.1.2-.1.3.1 1.9 1.2 3.9 2.7 5.9 1.4 2 3.5 3.9 5.8 5.7z"/><path class="st3" d="M246.4 201c-.3-.1-.6-.2-1-.3-.5-.1-1.1-.3-1.6-.4.8.2 1.7.4 2.6.7zM328.7 204.2c-.4 1.3-1.4 2.5-3 3.4-1.5.9-3.5 1.6-5.7 2.2-3.2.7-6.8 1-10.5 1.1 5.5-.4 10.6-1.4 13.9-3.2 1.7-.9 2.9-2.1 3.4-3.4.3-.8.4-1.7.2-2.6l-.6-.1v.5c-.1 1.7-1.2 3.2-3.2 4.3-.3.2-.7.4-1.1.6-1.4.7-3.2 1.3-5.1 1.7-2.2.6-4.7 1-7.4 1.3-3.4.4-7 .5-10.8.5h-.8.1-2.8c-1-.1-1.9-.2-2.9-.3.4 0 .8-.1 1.1-.1-.9 0-1.7 0-2.6-.1-5.4-.5-10.7-1.2-16-1.8h-.3c.4.1 1.5.3 2.7.5 1.2.2 2.4.4 3.2.6h.2c-.6-.1-1.2-.1-1.7-.2s-.8-.1-.8-.1l.6.4c-1-.2-1.5-.1-2.1-.1 6.1 1 12.2 1.8 18.2 2.3 6 .5 11.8.7 17.3.3-.8.5-4.3.5-5.9.5-3.9-.1-7.9-.4-11.5-.6-5.1-.5-10.3-.9-15.5-1.6-5.2-.6-10.5-1.4-15.7-2.5-1.9-.3-3.8-.6-5.6-.9-.5-.1-.7 0-.5.1.2.1.6.3 1.4.5.9.3 2 .6 3.2.9.8.2 1.6.3 2.3.5 10.6 2.1 20.1 3.5 29.7 4.5 7.5.7 14.3.8 20.7.1 3.2-.3 6.2-.8 9-1.6.7-.2 1.4-.4 2-.7.3-.1.7-.2 1-.4.3-.1.6-.3.9-.4.6-.3 1.2-.6 1.7-.9.5-.4 1.1-.7 1.5-1.1.9-.8 1.5-1.7 1.9-2.6.1-.2.2-.5.2-.7l.1-1.8-4.8-1.1c.5.6.6 1.4.4 2.1zM325.1 197.9c.9 1.2 1.3 2.4 1.4 3.6l.6.1c-.1-.6-.4-1.2-.7-1.9-.4-.6-.8-1.2-1.3-1.8zM234 196.9c1.7.6 3.6 1.3 5.6 2 .9.2 1.9.5 2.8.7-.4-.1-.7-.3-1.1-.4-2.4-.7-4.9-1.5-7.3-2.3zM190.8 171.5c.2 1.2.9 2.5 1.9 3.8 2.1 2.6 5.4 5.2 9 7.5 3.6 2.3 7.5 4.3 11.2 6 2.2 1 4.3 1.9 6.5 2.7-.8-.4-1.5-.7-2.3-1-3.1-1.5-5.7-2.8-8-4.1-.9-.4-1.7-.9-2.6-1.3-4.4-2.3-8.5-4.9-11.2-7.6 1.1.9 2.3 1.7 3.6 2.4-1.6-1.2-3-2.4-4.1-3.5l-.4-.4c-1.9-2.1-2.9-4-2.8-5.8 0-.2 0-.4.1-.6l-.9-.2c-.1.8-.1 1.4 0 2.1zM232.7 195.9c-2.3-.7-4.7-1.4-7-2.1 3.2 1.1 6.4 2.2 9.6 3.1-.6-.2-1.2-.5-1.8-.7-.3-.2-.6-.3-.8-.3z"/><path class="st3" d="M216.8 189.9c2.9 1.4 5.8 2.7 8.7 3.9-1.4-.7-3.3-1.6-4.9-2.3-1.3-.6-2.5-1.1-3.8-1.6z"/><path class="st4" d="M219 189.8c-2.3-1-4.7-2-7-3.1-2-.8-3.5-1.5-5.1-2.3 2.1 1.1 4.4 2.7 6.6 3.6 5.4 2.3 10.2 4.3 15.1 6.1-.2-.1-.4-.2-.6-.2-4.8-2-7-3.1-9-4.1zM207.3 165.5c-1.1.1-2 .3-2.9.5.7-.1 1.4-.1 2.3-.2.7 0 1.4 0 2.2-.1 2.8-.2 6-.2 9.5 0-1.5-.1-3-.2-4.4-.3-.5 0-1.1 0-1.7-.1h-2.1c-1 .1-2 .1-2.9.2zM233.1 196c-.2 0-.3-.1-.5-.1.3.1.5.2.8.3-.1-.1-.2-.2-.3-.2zM194.1 173.5c0-.2-.1-.4-.1-.5-.1-.9 0-1.7.4-2.5-.1.1-.2.3-.3.4-.3.7-.3 1.6 0 2.6zM204.7 183.1c-.7-.4-1.3-.8-1.9-1.2-.4-.3-.9-.5-1.3-.8.8.6 1.7 1.2 2.7 1.8.9.5 1.8.9 2.7 1.4-.4-.2-.7-.4-1.1-.7-.4-.1-.8-.3-1.1-.5zM325.8 202.9c-.1.8-.5 1.6-1.1 2.3-.4.4-.8.8-1.3 1.1 2-1.1 3.1-2.6 3.2-4.3v-.5l-.8-.2v1.6z"/><path class="st4" d="M201 181.2c-.4-.3-.8-.6-1.1-.9-.6-.5-1-.9-1.5-1.2l-1-1-.2-.2-1.2-1.2c-.5-.6-.9-1.1-1.2-1.6-1.1-1.3-1.5-2.4-1.6-3.2v-.6c-.4 1.8.7 3.9 1.6 5.2 1.1 1.1 2.5 2.3 4.1 3.5.6.4 1.2.7 1.9 1.1.1.1.1.1.2.1z"/><path class="st4" d="M194.5 176.1l-.6-.6-.9-1.2c-.5-.8-.9-1.7-1-2.6-.1-.4 0-.9 0-1.3 0-.2.1-.4.2-.5l-.5-.1c0 .2-.1.4-.1.6 0 1.7 1 3.7 2.9 5.7zM196.5 168.1c.6-.4 1.3-.9 2.2-1.3-1 .4-2.2.9-3.2 1.6-.7.4-1.2 1-1.7 1.6l.6-.6c.7-.6 1.3-1 2.1-1.3zM204.8 165.6c-.7.1-1.3.1-1.9.2-1.9.3-3 .6-3.5.8-.2.1-.3.1-.2.1.1 0 .4 0 1-.2.4-.1.9-.2 1.5-.3.7-.2 1.6-.4 2.5-.6.1.1.3.1.6 0z"/><path class="st5" d="M191.4 168.3c.5-.9 1.4-1.6 2.3-2.3.5-.3.9-.6 1.4-.8.5-.3.9-.5 1.4-.7.3-.1.6-.1 1.2-.2.1-.1.2-.1.4-.2 1.8-.4 3.9-.8 5.8-1.2-1.8.2-3.6.4-5.2.8-1.8.2-3.6.6-5.1 1.1-1.5.6-2.9 1.4-3.7 2.4-.5.5-.8 1.2-.9 1.8l2 .5c0-.4.1-.8.4-1.2zM194.9 176.5l-.4-.4c.1.2.3.3.4.4zM204.2 166.8c1.6-.3 3.4-.5 5.4-.7 1.5-.1 3.1-.2 4.8-.2-2.1-.1-3.9-.1-5.4-.1-2.5.2-4.7.4-6.6.9-.9.4-1.7.8-2.4 1.2 1.2-.4 2.6-.8 4.2-1.1zM198.6 168c-.1 0-.2 0-.2.1-.4.2-.8.5-1.1.8.4-.4.8-.7 1.3-.9zM197 172.9c.5 1.5 1.8 3 3.5 4.2.1.1.2.3.5.6.1.1.3.2.5.3 1.1 1 2.8 2.1 4.7 3.1-1.4-.9-2.7-1.8-3.9-2.6-2.7-2.7-4-5.1-3.4-7l-1.9-.5c-.2.6-.2 1.2 0 1.9zM199 180c-1.3-.8-2.5-1.6-3.6-2.4 2.7 2.6 6.8 5.2 11.2 7.6.8.4 1.7.9 2.6 1.3-2.1-1.1-3.8-2.2-5.2-3.1-1.9-1.2-3.6-2.3-5-3.4zM235.9 197.1c-.2-.1-.5-.2-.7-.3-3.2-1-6.4-2-9.6-3.1 2.3.8 4.7 1.5 7 2.1-7-2.4-13.3-4.9-18.9-7.5.5.2.9.5 1.4.7.5.3 1.1.5 1.6.8 1.3.5 2.5 1 3.8 1.5 1.7.7 3.5 1.6 4.9 2.3.2.1.3.1.5.2 2.2.8 4.8 1.8 8 3 2.4.8 4.9 1.6 7.3 2.3-1.6-.5-3.5-1.3-5.3-2z"/><path class="st5" d="M212.9 188.8c-3.7-1.7-7.6-3.7-11.2-6-3.6-2.3-6.9-4.8-9-7.5-1-1.3-1.7-2.6-1.9-3.8-.1-.7-.1-1.4.1-2l-2-.5c-.1.6-.2 1.2-.1 1.8.2 1.4 1 2.9 2.3 4.3 1.2 1.4 2.8 2.8 4.5 4.1 1.7 1.3 3.6 2.5 5.5 3.6 3.8 2.3 7.9 4.3 12 6.2 1.8.9 4.3 1.8 6.9 2.8.5.2 1.1.4 1.6.6l-2.1-.9c-2.3-.8-4.5-1.7-6.6-2.7z"/><path class="st2" d="M228.6 194.1c-4.9-1.8-9.8-3.8-15.1-6.1-2.2-.9-4.6-2.5-6.6-3.6-.9-.5-1.8-.9-2.7-1.4.5.3 1 .6 1.5 1 2.4 1.4 5.1 3 8.1 4.5 5.5 2.6 11.9 5.1 18.9 7.5.2 0 .3.1.5.1-2-.9-3.6-1.6-4.6-2zM210.2 165.4h2.1c-1.5-.1-3.1-.2-4.2 0-.3 0-.5.1-.8.1.9-.1 1.9-.1 2.9-.1zM206.8 165.8c-.9 0-1.6.1-2.3.2-.8.2-1.5.4-2.1.7 1.8-.4 4.1-.7 6.6-.9h-2.2zM201.9 181.9l-.9-.6c-.1 0-.1-.1-.2-.1-.6-.4-1.3-.7-1.9-1.1 1.5 1.1 3.1 2.2 5 3.3-.7-.6-1.4-1.1-2-1.5zM193.2 171.4c.1-.4.2-.8.4-1.1l-1.4-.3c-.1.2-.1.4-.2.5 0 .4-.1.9 0 1.3.1.9.5 1.8 1 2.6.3.4.5.8.9 1.2l.6.6.4.4c-1-1.4-2-3.4-1.7-5.2zM197.2 168.8c.3-.3.7-.5 1.1-.8-1.3.4-3 1.1-3.9 2.3l1.2.3c0-.1.1-.2.1-.3l1.5-1.5z"/><path class="st2" d="M196.2 176.8s.1.1.3.2c.4.4 1.3 1.3 2.8 2.5.6.5 1.4 1.1 2.2 1.7.4.2.8.5 1.3.8.6.4 1.2.7 1.9 1.2.3.2.7.4 1 .6.4.2.7.4 1.1.7 1.6.8 3.2 1.5 5.1 2.3 2.4 1.1 4.7 2.1 7 3.1-.4-.2-.7-.4-1.1-.5l-4-2c-1.6-.8-3.7-1.8-6.4-3.3-2.2-1.2-4.6-2.7-6.7-4.4-1.1-.8-2-1.7-2.8-2.5-.8-.8-1.5-1.7-1.9-2.5-.4-.8-.7-1.6-.7-2.3-.1-.4 0-.7.1-1 .1-.2.1-.4.2-.6l-1.2-.3c-.4.8-.5 1.6-.4 2.5 0 .2.1.4.1.5.4 1.1 1.1 2.2 2.2 3.2-.6-.5-1-1-1.4-1.4.3.5.7 1 1.2 1.6.3.4.7.8 1.2 1.2-.2-.2-.3-.4-.5-.5-.5-.6-.6-.8-.6-.8z"/><path class="st5" d="M317.1 208.5c1.9-.4 3.7-.9 5.1-1.7.4-.2.8-.4 1.1-.6-1 .6-2.2 1.1-3.6 1.5-.8.3-1.7.6-2.6.8z"/><path class="st2" d="M325.8 202.9c.1-.5 0-1.1-.1-1.6l-.7-.2c0 .1.1.3.1.4.4 2.4-1.2 4.3-4.1 5.7-.4.2-.8.4-1.3.5 1.4-.4 2.6-.9 3.6-1.5.5-.3 1-.7 1.3-1.1.6-.6 1.1-1.4 1.2-2.2z"/><path class="st5" d="M216.2 190.7c-4.7-1.9-10.4-4.5-14.7-6.6 2.2 1.2 4.5 2.4 6.8 3.6 2.3 1.2 4.7 2.3 7.1 3.3.8.3 1.5.6 2.3.9-.6-.3-.9-.4-.8-.4.3.1 2.1.8 4.7 1.8.4.2.8.3 1.3.5 3.4 1.2 6.8 2.3 10.2 3.3-.9-.3-1.7-.6-2.5-.9-4.8-1.7-9.6-3.5-14.4-5.5zM239.6 198.9c1.3.4 2.7.9 4.2 1.3.5.2 1.1.3 1.6.4-.9-.3-1.9-.7-3-1-.9-.2-1.8-.5-2.8-.7z"/><path class="st4" d="M322.7 204.9c1.1-1.2 1.4-2.6 1-4.1l-.2-.1c.1.2.1.4.1.6.1 1.2-.4 2.3-1.4 3.2-.5.4-1 .8-1.6 1.1-1.3.8-3 1.5-5 2-2.6.6-5.5 1.1-8.4 1.4.6 0 1.3-.1 1.9-.1.9 0 1.8-.2 2.7-.2.9-.1 1.7-.2 2.6-.3 1.4-.2 2.7-.5 3.9-.8.6-.2 1.2-.5 1.8-.8 1-.5 2-1.2 2.6-1.9zM313.9 191.4z"/><path class="st2" d="M323.7 201.4c0-.2-.1-.4-.1-.6l-.7-.2c.4 1.2.2 2.4-.4 3.5-.4.6-1 1.1-1.8 1.6.6-.3 1.2-.7 1.6-1.1.9-.9 1.5-2 1.4-3.2z"/><path class="st5" d="M310.7 209.4c1.1-.2 2.1-.4 3.1-.6-2.6.3-5.6.5-8.8.5-.8.1-1.5.2-2.2.3h3.7c1.4 0 2.8 0 4.2-.2z"/><path class="st2" d="M318.3 207.6c-1.2.3-2.5.6-3.9.8-.8.1-1.7.2-2.6.3-.9.1-1.7.2-2.7.2-.6 0-1.2.1-1.9.1-.7.1-1.4.2-2.1.2h-.2c3.3 0 6.2-.2 8.8-.5l2.4-.6c.8-.1 1.5-.3 2.2-.5z"/><path class="st3" d="M299 210.3c4.1-.1 8.1-.3 11.7-.9-1.4.1-2.8.2-4.2.2h-3.7c-1.5.2-2.9.4-4.4.6h-.1c.2.1.4.1.7.1z"/></svg>